<?xml version="1.0" encoding="UTF-8"?>
<svg width="120" height="120" viewBox="0 0 120 120" xmlns="http://www.w3.org/2000/svg">
  <path d="M60 0C26.86 0 0 26.86 0 60s26.86 60 60 60 60-26.86 60-60S93.14 0 60 0zm24.41 92.78l-30.33-66.55c-.39-.9-1.28-1.48-2.26-1.48-.97 0-1.86.58-2.25 1.47L19.63 92.82c-.24.53-.24 1.14 0 1.67.24.53.7.94 1.27 1.12l12.86 4.24c.57.19 1.22.15 1.76-.12.54-.27.95-.74 1.14-1.31l20.47-59.26L75.52 93.4c.1.29.27.57.51.79.24.22.52.39.84.48l5.61 1.72c.1.03.19.04.29.05.11.01.21.02.31.01h.07c.01 0 .03 0 .04-.01h.23c.09-.01.18-.03.27-.06.09-.02.18-.03.27-.07.09-.03.18-.08.27-.13.08-.05.16-.09.24-.14.08-.06.16-.13.23-.2.07-.07.13-.13.19-.21.06-.07.13-.16.18-.25.05-.08.09-.17.13-.25.04-.09.08-.18.11-.28.03-.09.05-.19.07-.28.01-.05.03-.09.03-.14.01-.05.01-.11.01-.16v-.07l.01-.07c0-.08 0-.16-.01-.25V93.74 93.7c0-.1-.02-.19-.04-.29-.02-.1-.05-.19-.09-.28-.04-.09-.08-.18-.14-.26-.05-.08-.11-.16-.17-.24-.06-.07-.13-.14-.2-.2l-.01-.01c-.01-.01-.02-.02-.03-.03s-.02-.02-.03-.02c-.07-.06-.14-.12-.22-.17-.08-.05-.16-.1-.25-.14-.09-.04-.17-.07-.27-.1-.09-.03-.18-.05-.27-.06-.09-.01-.19-.02-.29-.02-.1-.01-.19 0-.29.01H81.67c-.1.01-.2.03-.3.05-.1.02-.19.05-.28.09-.09.04-.19.08-.27.14-.08.06-.17.12-.24.19l-.01.01c-.01.01-.02.02-.03.02-.01.01-.01.02-.02.02-.07.07-.13.15-.19.22-.06.08-.11.16-.16.25-.04.08-.08.18-.11.27-.03.09-.05.19-.07.28-.01.1-.02.19-.02.29v.02l-.01.04c0 .09.01.19.02.28.01.1.04.19.07.28.03.09.07.18.11.27.04.09.1.17.16.25.05.08.11.16.18.22.06.07.13.13.2.19.07.06.15.11.22.16.08.05.16.09.25.13.08.04.17.07.26.1.09.02.18.04.28.05.09.01.18.02.28.02h.07c.02 0 .05 0 .07-.01.1-.01.19-.03.28-.05.09-.02.18-.06.26-.09.09-.04.17-.09.25-.14.08-.05.16-.12.23-.19.07-.07.13-.14.19-.22.06-.08.11-.16.15-.25.05-.09.08-.18.11-.27.03-.09.05-.19.06-.29.01-.1.02-.2.01-.29v-.07-.07c0-.1-.01-.2-.03-.29-.02-.1-.05-.19-.08-.28l-30.32-66.77c-.4-.89-1.29-1.46-2.26-1.46-.13 0-.27.01-.4.04-.97.19-1.7.95-1.85 1.93-.08.49-.03.97.13 1.42l30.28 66.72c.12.26.12.55 0 .8-.12.26-.36.45-.64.51 0 0-4.29 1.01-5.91 1.38-.79.18-1.63.28-2.46.28-1.35 0-2.68-.26-3.92-.77l-18.86-7.75" fill="#32c766"/>
</svg>
